<svg width="80" height="80" viewBox="0 0 80 80" fill="none" xmlns="http://www.w3.org/2000/svg">
<path d="M56.6668 70C57.5508 70 58.3987 69.6488 59.0238 69.0237C59.6489 68.3986 60.0001 67.5507 60.0001 66.6667V48.8333C60.0001 47.31 61.0534 46.02 62.4234 45.3633C65.26 44.0102 67.5274 41.6985 68.8255 38.8363C70.1236 35.9741 70.3689 32.7453 69.5182 29.7198C68.6674 26.6944 66.7753 24.0667 64.1757 22.3005C61.5761 20.5343 58.4362 19.7431 55.3101 20.0667C54.0226 17.074 51.8863 14.5243 49.1653 12.7328C46.4443 10.9413 43.2579 9.98647 40.0001 9.98647C36.7423 9.98647 33.5559 10.9413 30.8349 12.7328C28.1138 14.5243 25.9775 17.074 24.6901 20.0667C21.5654 19.7454 18.4275 20.5377 15.8299 22.3038C13.2322 24.0699 11.3415 26.6964 10.491 29.7203C9.64063 32.7442 9.88513 35.9713 11.1814 38.8325C12.4778 41.6937 14.7426 44.0054 17.5768 45.36C18.9468 46.02 20.0001 47.31 20.0001 48.83V66.6667C20.0001 67.5507 20.3513 68.3986 20.9764 69.0237C21.6015 69.6488 22.4494 70 23.3334 70H56.6668Z" stroke="#030213" stroke-width="6.66667" stroke-linecap="round" stroke-linejoin="round"/>
<path d="M20 56.6667H60" stroke="#030213" stroke-width="6.66667" stroke-linecap="round" stroke-linejoin="round"/>
</svg>
